<?xml version="1.0" standalone="no"?>
<!DOCTYPE svg PUBLIC "-//W3C//DTD SVG 20010904//EN"
 "http://www.w3.org/TR/2001/REC-SVG-20010904/DTD/svg10.dtd">
<svg version="1.0" xmlns="http://www.w3.org/2000/svg"
 width="200.000000pt" height="200.000000pt" viewBox="0 0 200.000000 200.000000"
 preserveAspectRatio="xMidYMid meet">
<metadata>
created by Nepali Footprints
</metadata>
<g transform="translate(0.000000,200.000000) scale(0.100000,-0.100000)"
fill="#66ff66" stroke="none">
<path d="M90 1390 c0 -29 2 -30 43 -30 80 0 77 16 77 -423 0 -374 -1 -388 -20
-407 -13 -13 -33 -20 -60 -20 -38 0 -40 -2 -40 -30 l0 -30 165 0 165 0 0 30
c0 27 -3 30 -30 30 -41 0 -80 20 -85 44 -7 30 -11 766 -4 766 3 0 12 -13 20
-29 8 -16 124 -212 259 -435 l245 -405 43 -1 42 0 0 414 c0 276 4 424 11 445
13 36 35 51 78 51 28 0 31 3 31 30 l0 30 -159 0 -159 0 -4 -30 c-4 -29 -3 -30
33 -30 21 0 47 -8 60 -19 l24 -19 3 -318 3 -317 -172 284 c-95 156 -194 321
-222 367 l-50 82 -148 0 -149 0 0 -30z m291 -39 c23 -29 156 -245 308 -501
103 -173 130 -198 165 -148 15 21 16 14 16 -96 0 -90 -3 -117 -12 -114 -12 4
-67 89 -231 360 -238 392 -279 455 -302 473 l-27 20 -22 -26 -22 -26 -20 43
-20 43 55 3 c74 4 88 0 112 -31z m516 -15 c-24 -48 -24 -48 -56 7 l-23 37 51
0 50 0 -22 -44z m-612 -819 l17 -27 -46 0 c-51 0 -54 4 -26 40 11 14 20 34 21
45 1 16 2 15 9 -6 4 -14 15 -38 25 -52z"/>
<path d="M1140 1391 c0 -30 2 -31 43 -31 87 0 82 23 82 -418 0 -369 -1 -391
-19 -411 -14 -15 -31 -21 -63 -21 -41 0 -43 -1 -43 -30 l0 -30 190 0 190 0 0
30 c0 29 -2 30 -43 30 -71 0 -76 10 -79 197 l-3 161 170 4 c148 4 177 8 221
27 61 26 127 91 150 146 21 51 22 158 1 207 -22 53 -90 114 -155 139 -53 21
-76 23 -349 27 l-293 4 0 -31z m240 -20 c0 -6 -4 -13 -10 -16 -6 -4 -10 -85
-10 -209 0 -169 3 -206 15 -216 8 -7 15 -18 15 -25 0 -7 -7 -18 -15 -25 -22
-18 -22 -312 0 -354 8 -15 15 -30 15 -32 0 -2 -30 -4 -66 -4 l-65 0 20 26 c20
26 21 37 21 418 0 329 -2 395 -15 412 -23 30 -19 34 40 34 30 0 55 -4 55 -9z
m413 -27 c114 -57 156 -189 97 -304 -22 -43 -66 -85 -103 -99 -46 -18 -50 -13
-19 19 97 96 101 266 8 362 -40 42 -35 48 17 22z m-88 -16 c139 -75 140 -291
1 -365 -23 -13 -65 -18 -171 -21 l-140 -4 0 207 0 207 140 -4 c104 -3 148 -8
170 -20z"/>
</g>
</svg>
